# xmcd
#
# Track frame offsets: 
#        150
#        25375
#        50515
#        68900
#        81392
#        98315
#        114967
#        132715
#        158052
#        194152
#        215250
#        231262
#
# Disc length: 3276 seconds
#
# Revision: 1
# Processed by: cddbd v1.5PL3 Copyright (c) Steve Scherf et al.
# Submitted via: ExactAudioCopy v0.95a3
#
DISCID=a70cca0c
DTITLE=Astor Piazzolla - Libertango
DYEAR=1988
DGENRE=Tango
TTITLE0=Adios Nonino
TTITLE1=Cite' Tango
TTITLE2=Bandone
TTITLE3=Libertango
TTITLE4=Hotel P.L.M.
TTITLE5=Richie
TTITLE6=Windy
TTITLE7=Meditango
TTITLE8=Marejadilla
TTITLE9=Milonga Tres
TTITLE10=Violentango
TTITLE11=Celos
EXTD=YEAR: 1988 ID3G: 113
EXTT0=
EXTT1=
EXTT2=
EXTT3=
EXTT4=
EXTT5=
EXTT6=
EXTT7=
EXTT8=
EXTT9=
EXTT10=
EXTT11=
PLAYORDER=
